<svg width="200" height="200" viewBox="0 0 200 200" fill="none" xmlns="http://www.w3.org/2000/svg">
<path d="M100 0C44.7715 0 0 44.7715 0 100C0 155.228 44.7715 200 100 200V150C72.3858 150 50 127.614 50 100C50 72.3858 72.3858 50 100 50V0Z" fill="url(#paint0_radial)"/>
<path d="M100 186.622V200H150C131.786 200 114.709 195.13 100 186.622Z" fill="url(#paint1_radial)"/>
<path d="M150 50C177.614 50 200 27.6142 200 0L150 0V50Z" fill="#0D0032"/>
<path d="M100 0L150 0V50H100V0Z" fill="#0D0032"/>
<path d="M100 0C44.7715 0 0 44.7715 0 100C0 108.632 1.09383 117.009 3.15044 125C14.2515 81.8693 53.404 50 100 50V0Z" fill="#0D0032"/>
<path fill-rule="evenodd" clip-rule="evenodd" d="M150 100C177.614 100 200 122.162 200 149.5V199C200 171.662 177.614 149.5 150 149.5C122.386 149.5 100 127.338 100 100H150Z" fill="url(#paint2_radial)"/>
<path fill-rule="evenodd" clip-rule="evenodd" d="M100 150V186.622C114.709 195.13 131.786 200 150 200H200V199C200 174.06 181.369 153.427 157.134 150H150H100ZM50 100C50.1365 136.856 70.2111 169.012 99.9993 186.244V149.622C72.5112 149.622 50.2033 127.44 50 100Z" fill="#0D0032"/>
<defs>
<radialGradient id="paint0_radial" cx="0" cy="0" r="1" gradientUnits="userSpaceOnUse" gradientTransform="translate(198 200) rotate(-153.204) scale(221.82 166.365)">
<stop stop-color="#C20078"/>
<stop offset="1" stop-color="#00C2FF"/>
</radialGradient>
<radialGradient id="paint1_radial" cx="0" cy="0" r="1" gradientUnits="userSpaceOnUse" gradientTransform="translate(198 200) rotate(-153.204) scale(221.82 166.365)">
<stop stop-color="#C20078"/>
<stop offset="1" stop-color="#00C2FF"/>
</radialGradient>
<radialGradient id="paint2_radial" cx="0" cy="0" r="1" gradientUnits="userSpaceOnUse" gradientTransform="translate(21 67.5) rotate(36.3024) scale(222.111 224.354)">
<stop stop-color="#00C2FF"/>
<stop offset="1" stop-color="#C20078"/>
</radialGradient>
</defs>
</svg>
